<?xml version="1.0" encoding="UTF-8"?>
<svg id="Layer_1" data-name="Layer 1" xmlns="http://www.w3.org/2000/svg" viewBox="0 0 576 576">
  <defs>
    <style>
      .cls-1 {
        fill: #00c980;
      }

      .cls-2 {
        fill: #ff8c00;
      }

      .cls-3 {
        fill: #35a4e1;
      }
    </style>
  </defs>
  <g>
    <g>
      <path class="cls-1" d="M110.33,412.8h-9.79v4.55h10.86l-.43,2.92h-14.03v-17.14h13.92v2.92h-10.32v3.83h9.79v2.92Z"/>
      <path class="cls-1" d="M117.08,420.27v-17.14h4.27c4.5,6.71,7.58,10.79,8.62,12.74h.05c-.16-1.94-.14-4.98-.14-7.79v-4.95h3.31v17.14h-4.01c-1.92-2.83-7.8-11.58-8.88-13.55h-.05c.14,2.14.14,4.58.14,7.62v5.93h-3.31Z"/>
      <path class="cls-1" d="M144.52,406.04h-6.19v-2.91h15.98v2.91h-6.18v14.23h-3.61v-14.23Z"/>
      <path class="cls-1" d="M172.84,412.8h-9.79v4.55h10.86l-.43,2.92h-14.03v-17.14h13.92v2.92h-10.32v3.83h9.79v2.92Z"/>
      <path class="cls-1" d="M183.18,413.42v6.86h-3.57v-17.14h8.96c3.81,0,6.1,1.84,6.1,4.82,0,2.17-1.2,3.52-3.03,4.06.84.29,2.59,1.02,2.59,4.07v.82c0,1.22-.02,2.58.21,3.36h-3.69c-.28-.75-.29-1.86-.29-3.55v-.57c0-1.99-.75-2.74-3.41-2.74h-3.88ZM183.18,410.66h4.57c2.23,0,3.25-.79,3.25-2.43,0-1.52-1.03-2.34-3.19-2.34h-4.62v4.77Z"/>
      <path class="cls-1" d="M200.83,403.14h8.6c4.07,0,6.49,2.07,6.49,5.28,0,3.46-2.44,5.49-6.51,5.49h-4.97v6.37h-3.62v-17.14ZM204.45,411.05h4.64c1.95,0,3.24-.63,3.24-2.58,0-1.57-1-2.51-3.24-2.51h-4.64v5.09Z"/>
      <path class="cls-1" d="M224.99,413.42v6.86h-3.57v-17.14h8.96c3.81,0,6.1,1.84,6.1,4.82,0,2.17-1.2,3.52-3.03,4.06.84.29,2.59,1.02,2.59,4.07v.82c0,1.22-.02,2.58.21,3.36h-3.69c-.28-.75-.29-1.86-.29-3.55v-.57c0-1.99-.75-2.74-3.41-2.74h-3.88ZM224.99,410.66h4.57c2.23,0,3.25-.79,3.25-2.43,0-1.52-1.03-2.34-3.19-2.34h-4.62v4.77Z"/>
      <path class="cls-1" d="M246.24,403.14v17.14h-3.6v-17.14h3.6Z"/>
      <path class="cls-1" d="M255.37,415.19c.53,1.65,1.81,2.76,4.82,2.76s3.83-.97,3.83-2.24c0-1.34-.84-2.13-4.71-2.78-5.69-.97-6.82-2.8-6.82-5.11,0-3.29,3.15-5.03,7.1-5.03,5.78,0,7.29,2.99,7.48,4.9h-3.61c-.28-.95-.9-2.22-3.98-2.22-2.14,0-3.33.7-3.33,2,0,1.12.7,1.74,4.14,2.35,6.41,1.13,7.42,3.08,7.42,5.53,0,2.89-2.28,5.27-7.84,5.27-5.18,0-7.59-2.32-8.12-5.43h3.62Z"/>
      <path class="cls-1" d="M287.08,412.8h-9.79v4.55h10.86l-.43,2.92h-14.03v-17.14h13.92v2.92h-10.32v3.83h9.79v2.92Z"/>
      <path class="cls-1" d="M296.05,415.19c.53,1.65,1.81,2.76,4.82,2.76s3.83-.97,3.83-2.24c0-1.34-.84-2.13-4.71-2.78-5.69-.97-6.82-2.8-6.82-5.11,0-3.29,3.15-5.03,7.1-5.03,5.78,0,7.29,2.99,7.48,4.9h-3.61c-.28-.95-.9-2.22-3.98-2.22-2.14,0-3.33.7-3.33,2,0,1.12.7,1.74,4.14,2.35,6.41,1.13,7.42,3.08,7.42,5.53,0,2.89-2.28,5.27-7.84,5.27-5.18,0-7.59-2.32-8.12-5.43h3.62Z"/>
      <path class="cls-1" d="M323.75,403.14h3.59v14.21h9.83l-.49,2.92h-12.94v-17.14Z"/>
      <path class="cls-1" d="M342.03,403.14h3.59v14.21h9.83l-.49,2.92h-12.94v-17.14Z"/>
      <path class="cls-1" d="M360.3,403.14h8.6c4.07,0,6.49,2.07,6.49,5.28,0,3.46-2.44,5.49-6.51,5.49h-4.97v6.37h-3.62v-17.14ZM363.92,411.05h4.64c1.95,0,3.24-.63,3.24-2.58,0-1.57-1-2.51-3.24-2.51h-4.64v5.09Z"/>
    </g>
    <g>
      <g>
        <path class="cls-2" d="M172.91,372.16v7.51c4.99.08,9.98.15,14.96.23-1.35,3.74-5.62,6.01-11.98,5.78-6.3-.25-13.75-3.74-13.75-11.13,0-6.96,7.38-10.54,13.68-10.79,5.42-.19,9.07,1.94,11.04,4.6,4.78-.09,9.57-.18,14.35-.27-2.78-7.77-13.07-13.48-25.05-12.68-14.76,1.04-26.81,9.13-26.81,19.14,0,9.64,11.44,18.38,26.61,19.45,13.88.98,26.75-6.32,26.75-19.97,0-.82,0-1.41-.07-2.12-9.91.08-19.82.16-29.73.24Z"/>
        <path class="cls-2" d="M240.22,366.66l-16.39,2.57v-19.72l-12.8,1.51v43.08c4.27.25,8.53-.25,12.8,0v-15.3l16.39-2.15v17.45c4.27.25,8.53-.25,12.8,0,0-14.76,0-33.01,0-48.03l-12.8,1.51v19.08Z"/>
        <path class="cls-2" d="M347.33,372.13c-.05.05-.09.1-.14.15-6.32-11.75-12.64-24.19-18.95-35.09l-11.45,1.35c0,17.5,0,38.24,0,55.56,4.09.24,8.17-.24,12.26,0-.11-11.09-.23-23.89-.34-34.96.05-.03.09-.05.14-.08,6.36,11.02,12.73,23.13,19.09,35.04,3.7.21,7.4-.21,11.1,0v-60.54l-12.21,1.44c.16,11.51.33,26.35.49,37.13Z"/>
        <path class="cls-2" d="M369.88,394.1c4.27.25,8.53-.25,12.8,0v-63.33l-12.8,1.51v61.82Z"/>
        <path class="cls-2" d="M459.83,321.68l-10.29,1.21c-6.66,23.1-13.32,49.7-19.95,71.21h12.79c.86-3.22,2.73-9.88,3.62-13.16l1.02-3.99,14.89-1.53,1.49,6.26c.8,3.41,1.62,8.98,2.42,12.43h13.89c-6.56-24.18-13.32-49.7-19.88-72.42ZM454.79,343.6h.06c1.52,6.93,3.04,13.94,4.54,21l-9.54.98c1.6-7.28,3.21-14.58,4.81-21.98h.13Z"/>
        <path class="cls-2" d="M290.26,341.69l-10.77,1.24c-6.56,16.54-13.09,36.32-19.63,51.17,4.56.25,9.14-.25,13.73,0,.84-2.15,1.64-6.1,2.48-8.5l17.1-1.19.46,1.42c.8,2.49,1.62,5.77,2.42,8.28,4.65.25,9.27-.25,13.89,0-6.56-17.71-13.13-36.16-19.69-52.41ZM285.04,358.42h.06c1.61,5.24,3.22,10.58,4.83,15.96l-10.11.71c1.7-5.47,3.4-11.04,5.09-16.67h.13Z"/>
        <path class="cls-2" d="M127.35,360.9l-10,1.18c-6.69,10.48-14.37,23.07-21.06,32.02,4.59.25,9.18-.25,13.76,0l.35-.61,2.39-4.44,18.22-.64.07.14c.8,1.56,1.94,3.95,2.77,5.54,4.62.25,8.92-.25,13.54,0-6.5-11.41-19.47-32.28-20.04-33.2ZM122.32,371.32h.22c1.44,2.93,2.85,5.9,4.28,8.9l-9.46.33,4.96-9.23Z"/>
      </g>
      <path class="cls-1" d="M442.68,318.65l-5.42-22.34-17.37,13.81,5.7,2.14-5.34,16.25s0,0,0,0l-8.99,27.3c-.09-.17-.11-.37-.14-.57-.11-.17-.2-.37-.23-.6-.03.06-.06.11-.06.17-2.5-8.56-5.35-18.12-7.84-26.43l-13.58,1.6c4.99,12.82,10.06,26.3,15.05,39.83l1.13,3.26v.03l-1.13,3.4v.02l-14.44,43.75h13.72l8.06-26.67c-.51.01-1.02.03-1.53.04.51-.02,1.02-.03,1.53-.05l5.47-16.73v-.03l19.7-60.32,5.69,2.13ZM425.04,348.2c-.19.54-.38,1.07-.56,1.61.19-.54.38-1.07.56-1.61Z"/>
    </g>
  </g>
  <g>
    <path class="cls-2" d="M300.51,235.14v3.6s-.08.08-.08.08h-5.57c-.25,0-.67.4-.78.63-.28.57-.42,1.72-.67,2.41-1.58,4.46-5.6,7.02-10.1,7.91-.56.11-1.46.15-1.95.33-.57.21-.71.9-.33,1.35,5.2,5.65,10.11,11.55,14.96,17.51.05.24-.14.25-.32.27-1.95.17-4.14-.13-6.12,0l-.35-.14c-5.27-6.32-10.6-12.61-16.23-18.61l-.05-.16c.12-1.29-.15-2.86,0-4.12.03-.23.2-.23.41-.24,1.48-.12,3.15.07,4.66,0,3.58-.15,7.85-1.36,9.45-4.89.35-.77.9-2.14-.41-2.26h-13.8s-.29-.05-.29-.05v-3.63s.29-.06.29-.06h13.48c1.12-.37.72-1.18.23-1.91-1.67-2.49-5.01-3.31-7.86-3.45-1.87-.09-3.97.17-5.79,0-.14-.01-.25-.02-.35-.14v-4.57s27.39-.04,27.39-.04c.15.05.14.15.15.28.1,1.01-.08,2.17,0,3.2l-.11.21-7.76.03c-.42.06-.77.39-.78.83,0,.41.56,1.04.79,1.42.48.81.83,1.67,1.11,2.57.2.65.12,1.48.98,1.56,1.75.16,3.76-.14,5.52,0,.1,0,.2.03.29.06Z"/>
    <g>
      <path class="cls-2" d="M200.83,211.55l.74-1.74,3.18,1.36,1.79-4.18-3.19-1.36.74-1.74,8.27,3.54-.74,1.74-3.68-1.58-1.79,4.18,3.68,1.58-.74,1.74-8.27-3.54Z"/>
      <path class="cls-2" d="M212.26,202.9l1.5,1.92-.98,1.69-5.93-7.72,1.2-2.07,9.73,1.16-1.03,1.77-2.44-.31-2.07,3.56ZM212.72,199.04c-2.36-.3-3.53-.47-4.21-.62h0c.46.51,1.43,1.67,2.68,3.27l1.53-2.65Z"/>
      <path class="cls-2" d="M216.66,193.38l2.88,2.16-1.12,1.5-7.21-5.39,2.82-3.77c1.2-1.6,2.69-1.99,3.95-1.05.91.68,1.1,1.62.76,2.55.39-.26,1.24-.77,2.53.19l.35.26c.51.38,1.08.82,1.48.97l-1.16,1.55c-.4-.12-.87-.46-1.59-1l-.24-.18c-.84-.62-1.39-.55-2.22.57l-1.22,1.63ZM215.51,192.51l1.44-1.92c.7-.94.69-1.62,0-2.13-.64-.48-1.31-.3-1.99.61l-1.46,1.94,2.01,1.5Z"/>
      <path class="cls-2" d="M220.35,180.33l2.84-2.75c2.15-2.08,4.71-1.84,6.38-.12,2,2.07,1.73,4.8-.15,6.62l-2.81,2.72-6.26-6.47ZM226.94,184.42l1.25-1.21c1.41-1.36,1.34-2.9-.03-4.31-1.25-1.3-2.76-1.38-4.14-.07l-1.29,1.25,4.2,4.34Z"/>
      <path class="cls-2" d="M237.24,172.44l-4.08,3.13,1.46,1.9,4.52-3.47.75,1.35-5.84,4.49-5.48-7.14,5.8-4.45.93,1.22-4.3,3.3,1.22,1.6,4.08-3.13.93,1.22Z"/>
      <path class="cls-2" d="M241.9,171.39l.38,2.41-1.68,1-1.43-9.63,2.06-1.23,7.95,5.75-1.76,1.05-1.98-1.45-3.54,2.11ZM244.18,168.24c-1.92-1.42-2.86-2.13-3.38-2.59h-.01c.16.66.44,2.15.76,4.16l2.63-1.57Z"/>
      <path class="cls-2" d="M246.38,161.11l1.71-.79,3.12,6.78,4.69-2.16.41,1.5-6.17,2.84-3.76-8.17Z"/>
      <path class="cls-2" d="M257.93,167.54c.07-1.71-.16-3.01-.42-4.14l1.73-.64c.31,1.39.35,3.15.11,4.25l-1.42.53Z"/>
      <path class="cls-2" d="M265.34,160.65c.48.78,1.26,1.19,2.81.82,1.48-.36,1.84-.97,1.68-1.61-.16-.69-.69-.98-2.75-.84-3.03.21-3.83-.59-4.11-1.77-.41-1.68.99-2.96,3.01-3.44,2.96-.71,4.09.63,4.43,1.58l-1.85.44c-.26-.45-.73-1.02-2.3-.64-1.09.26-1.62.77-1.45,1.43.14.57.57.8,2.4.69,3.41-.21,4.17.66,4.47,1.91.36,1.48-.52,2.97-3.36,3.66-2.64.64-4.16-.25-4.82-1.78l1.85-.45Z"/>
      <path class="cls-2" d="M280.34,156.66l-5.1.66.31,2.37,5.66-.73-.03,1.55-7.31.94-1.15-8.93,7.25-.94.2,1.52-5.38.7.26,2,5.1-.66.2,1.52Z"/>
      <path class="cls-2" d="M291.41,157.49c-.43,1.57-1.62,3-4.36,3.04-3.14.04-4.75-2.12-4.78-4.62-.03-2.5,1.67-4.73,4.75-4.77,2.71-.04,4.05,1.43,4.36,2.93l-1.92.03c-.26-.65-.83-1.48-2.45-1.46-1.81.02-2.78,1.4-2.76,3.18s.99,3.26,2.86,3.23c1.41-.02,2.01-.6,2.39-1.53l1.9-.02Z"/>
      <path class="cls-2" d="M295.65,151.61l-.55,5.07c-.22,2.05.84,2.7,2.03,2.83,1.32.14,2.24-.36,2.45-2.35l.55-5.07,1.88.2-.55,5.11c-.3,2.78-1.96,3.86-4.54,3.59-2.52-.27-4-1.63-3.7-4.41l.56-5.18,1.88.2Z"/>
      <path class="cls-2" d="M305.72,158.53l-.8,3.51-1.82-.42,2.01-8.77,4.59,1.05c1.95.45,2.91,1.66,2.56,3.18-.25,1.11-1.03,1.66-2.03,1.73.4.24,1.2.82.85,2.39l-.1.42c-.14.62-.31,1.32-.29,1.74l-1.89-.43c-.05-.42.07-.98.27-1.85l.07-.29c.23-1.02-.06-1.49-1.42-1.8l-1.98-.46ZM306.04,157.12l2.34.54c1.14.26,1.76-.03,1.95-.86.18-.78-.25-1.32-1.36-1.57l-2.37-.54-.56,2.44Z"/>
      <path class="cls-2" d="M320.33,162.48l-4.87-1.65-.77,2.26,5.4,1.83-.71,1.38-6.97-2.37,2.89-8.52,6.92,2.35-.49,1.45-5.13-1.74-.65,1.9,4.87,1.65-.49,1.45Z"/>
      <path class="cls-2" d="M335.18,167.73l-4.05,1.63c-1.8.72-3.02,1.38-4.83.4-1.9-1.02-2.04-2.67-1.46-3.74.51-.94,1.43-1.51,3.78-1.21,1.83.23,2.28-.13,2.52-.58.22-.41.23-1.03-.42-1.38-.57-.31-1.11-.04-1.36.43-.24.45-.14,1.05.2,1.75l2.97,7.88-2.26-1.22-2.57-6.82c-.3-.86-.32-1.56.06-2.28.58-1.08,1.98-1.62,3.53-.79,1.64.89,1.77,2.29,1.28,3.2-.47.87-1.38,1.24-3.44.94-1.91-.27-2.38.3-2.62.74-.34.64-.16,1.44.63,1.86.83.45,1.42.31,3.3-.51l2.93-1.28,1.8.97Z"/>
      <path class="cls-2" d="M339.1,174.27c-.31.86-.13,1.73,1.12,2.7,1.2.93,1.9.82,2.31.3.43-.56.33-1.15-1.06-2.67-2.05-2.23-1.94-3.35-1.2-4.31,1.06-1.37,2.93-1.08,4.57.19,2.4,1.86,2.07,3.58,1.54,4.44l-1.5-1.16c.19-.48.34-1.21-.94-2.2-.89-.69-1.61-.78-2.03-.24-.36.47-.27.95.97,2.3,2.3,2.52,2.09,3.66,1.31,4.68-.93,1.2-2.64,1.46-4.95-.32-2.15-1.66-2.41-3.4-1.63-4.86l1.51,1.16Z"/>
      <path class="cls-2" d="M351.25,176.13l-6.05,6.66-1.4-1.27,6.05-6.66,1.4,1.27Z"/>
      <path class="cls-2" d="M355.22,188.06c1.18-1.07,2.39-2.14,3.15-2.76h0c-1.46.71-4.39,1.9-7.55,3.23l-1.11-1.23c1.48-2.51,3.19-5.66,4.06-7.1h0c-.73.74-2.01,2-3.15,3.02l-2.52,2.28-1.15-1.27,6.68-6.03,1.83,2.02c-1.43,2.65-2.83,5.35-3.47,6.28h0c1.25-.58,4-1.65,6.65-2.75l1.84,2.04-6.68,6.03-1.23-1.36,2.66-2.41Z"/>
      <path class="cls-2" d="M362.44,188.46l2.57,3.72c1.22,1.76,1.04,3.43-.34,4.38-1.49,1.03-3.1.59-4.32-1.17l-1.49-2.15-2.75,1.91-1.08-1.56,7.4-5.12ZM360.11,192.38l1.39,2c.58.84,1.24,1.21,2.08.63.68-.47.78-1.18.12-2.15l-1.39-2-2.2,1.52Z"/>
      <path class="cls-2" d="M368.12,196.99l.91,1.66-6.55,3.59,2.48,4.53-1.47.51-3.27-5.96,7.9-4.33Z"/>
      <path class="cls-2" d="M370.39,213.38l-2.01-4.74-2.2.93,2.22,5.25-1.5.39-2.87-6.78,8.29-3.51,2.85,6.73-1.41.6-2.11-4.99-1.85.79,2,4.73-1.41.6Z"/>
    </g>
    <g>
      <path class="cls-3" d="M360.21,218.59c-7.9-14.16-22.67-22.18-38.65-23.85-11.02-1.15-21.74,1.16-31.47,6.28-.05.26.13.36.29.51.92.9,2.29,1.78,3.29,2.7,10.23,9.38,16.95,22.5,18.47,36.36h54.47c-.48-7.72-2.64-15.26-6.4-22Z"/>
      <path class="cls-3" d="M351.54,200.56s.51.28.65-.19c.03-.05.04-.11.03-.18,0,0,0,0,0,0h0c-.05-.39-.69-.99-1.01-1.35-4.04-4.56-10.43-8.78-16.04-11.12-28.49-11.91-59.58,5.78-71.98,32.05-.67,1.41-1.16,3-1.95,4.31-6.57-1.47-13.15,3.73-13.5,10.39h-20.74c-.06-.97-.44-2.29-.8-3.21-.97-2.44-3.41-4.77-5.88-5.67-.38-.13-2.06-.46-2.16-.6-.12-.17-.1-.59-.06-.81.2-1.13,1.03-3.23,1.45-4.39,9.78-26.84,32.45-44.19,60.21-49.17h0c4.74-1.13,9.71-1.53,14.24-1.55,1.11-.02,2.19,0,3.23.03.49.02.98.04,1.46.06,3.03.16,6.06.46,8.56.77.05,0,.09.01.13.02,1.2.15,2.4.39,3.6.57.33.05.67.09,1.01.13h0s.04,0,.07,0c.24,0,.44-.2.44-.44,0-.22-.16-.39-.36-.43h0c-2.19-.59-4.34-1.32-6.57-1.84-23.45-5.42-47.6.13-66.29,15.06-17.49,13.97-28.58,35.19-30.24,57.59h54.25l.22-.36c2.17-17.18,11.8-32.84,26.45-42.05,19.03-11.96,43.55-11.03,61.58,2.38Z"/>
      <path class="cls-3" d="M285.59,173.55c-3.16-.26-8.89.5-8.63,4.83.41,6.88,16.25,10.88,19.04,4.77,2.42-5.29-6.32-9.25-10.41-9.59Z"/>
    </g>
    <g>
      <path class="cls-1" d="M215.44,270.21c7.9,14.16,22.67,22.18,38.65,23.85,11.02,1.15,21.74-1.16,31.47-6.28.05-.26-.13-.36-.29-.51-.92-.9-2.29-1.78-3.29-2.7-10.23-9.38-16.95-22.5-18.47-36.36h-54.47c.48,7.72,2.64,15.26,6.4,22Z"/>
      <path class="cls-1" d="M224.12,288.24s-.51-.28-.65.19c-.03.05-.04.11-.03.18,0,0,0,0,0,0h0c.05.39.69.99,1.01,1.35,4.04,4.56,10.43,8.78,16.04,11.12,28.49,11.91,59.58-5.78,71.98-32.05.67-1.41,1.16-3,1.95-4.31,6.57,1.47,13.15-3.73,13.5-10.39h20.74c.06.97.44,2.29.8,3.21.97,2.44,3.41,4.77,5.88,5.67.38.13,2.06.46,2.16.6.12.17.1.59.06.81-.2,1.13-1.03,3.23-1.45,4.39-9.78,26.84-32.45,44.19-60.21,49.17h0c-4.74,1.13-9.71,1.53-14.24,1.55-1.11.02-2.19,0-3.23-.03-.49-.02-.98-.04-1.46-.06-3.03-.16-6.06-.46-8.56-.77-.05,0-.09-.01-.13-.02-1.2-.15-2.4-.39-3.6-.57-.33-.05-.67-.09-1.01-.13h0s-.04,0-.07,0c-.24,0-.44.2-.44.44,0,.22.16.39.36.43h0c2.19.59,4.34,1.32,6.57,1.84,23.45,5.42,47.6-.13,66.29-15.06,17.49-13.97,28.58-35.19,30.24-57.59h-54.25l-.22.36c-2.17,17.18-11.8,32.84-26.45,42.05-19.03,11.96-43.55,11.03-61.58-2.38Z"/>
      <path class="cls-1" d="M290.06,315.25c3.16.26,8.89-.5,8.63-4.83-.41-6.88-16.25-10.88-19.04-4.77-2.42,5.29,6.32,9.25,10.41,9.59Z"/>
    </g>
  </g>
</svg>